999
DXF file generated by netDxf https://github.com/haplokuon/netDxf, Copyright(C) Daniel Carvajal, Licensed under MIT
0
SECTION
2
HEADER
9
$ACADVER
1
AC1015
9
$DWGCODEPAGE
3
ANSI_1252
9
$HANDSEED
5
38
9
$ANGBASE
50
0.0
9
$ANGDIR
70
0
9
$ATTMODE
70
1
9
$AUNITS
70
0
9
$AUPREC
70
0
9
$CECOLOR
62
256
9
$CELTSCALE
40
1.0
9
$CELTYPE
6
ByLayer
9
$CELWEIGHT
370
-1
9
$CLAYER
8
0
9
$CMLJUST
70
0
9
$CMLSCALE
40
20.0
9
$CMLSTYLE
2
Standard
9
$DIMSTYLE
2
Standard
9
$TEXTSIZE
40
2.5
9
$TEXTSTYLE
7
Standard
9
$LUNITS
70
2
9
$LUPREC
70
4
9
$MIRRTEXT
70
0
9
$EXTNAMES
290
1
9
$INSBASE
10
0.0
20
0.0
30
0.0
9
$INSUNITS
70
0
9
$LTSCALE
40
1.0
9
$LWDISPLAY
290
0
9
$PDMODE
70
0
9
$PDSIZE
40
0.0
9
$PLINEGEN
70
0
9
$PSLTSCALE
70
1
9
$SPLINESEGS
70
8
9
$SURFU
70
6
9
$SURFV
70
6
9
$TDCREATE
40
2461015.67763524
9
$TDUCREATE
40
2461015.63596858
9
$TDUPDATE
40
2461015.67763524
9
$TDUUPDATE
40
2461015.63596858
9
$TDINDWG
40
0.0
9
$UCSORG
10
0.0
20
0.0
30
0.0
9
$UCSXDIR
10
1.0
20
0.0
30
0.0
9
$UCSYDIR
10
0.0
20
1.0
30
0.0
9
$DIMADEC
70
0
9
$DIMALT
70
0
9
$DIMALTD
70
2
9
$DIMALTF
40
25.4
9
$DIMALTRND
40
0.0
9
$DIMALTTD
70
2
9
$DIMALTTZ
70
0
9
$DIMALTU
70
2
9
$DIMALTZ
70
0
9
$DIMAPOST
1

9
$DIMATFIT
70
3
9
$DIMAUNIT
70
0
9
$DIMASZ
40
0.18
9
$DIMAZIN
70
0
9
$DIMSAH
70
0
9
$DIMBLK
1

9
$DIMLDRBLK
1

9
$DIMCEN
40
0.09
9
$DIMCLRD
70
0
9
$DIMCLRE
70
0
9
$DIMCLRT
70
0
9
$DIMDEC
70
4
9
$DIMDLE
40
0.0
9
$DIMDLI
40
0.38
9
$DIMDSEP
70
46
9
$DIMEXE
40
0.18
9
$DIMEXO
40
0.0625
9
$DIMFXLON
70
0
9
$DIMFXL
40
1.0
9
$DIMGAP
40
0.09
9
$DIMJUST
70
0
9
$DIMLFAC
40
1.0
9
$DIMLUNIT
70
2
9
$DIMLWD
70
-2
9
$DIMLWE
70
-2
9
$DIMPOST
1

9
$DIMRND
40
0.0
9
$DIMSCALE
40
1.0
9
$DIMSD1
70
0
9
$DIMSD2
70
0
9
$DIMSE1
70
0
9
$DIMSE2
70
0
9
$DIMSOXD
70
0
9
$DIMTAD
70
0
9
$DIMTDEC
70
4
9
$DIMTFAC
40
1.0
9
$DIMTIH
70
0
9
$DIMTIX
70
0
9
$DIMTM
40
0.0
9
$DIMTMOVE
70
0
9
$DIMTOFL
70
0
9
$DIMTOH
70
0
9
$DIMTOL
70
0
9
$DIMLIM
70
0
9
$DIMTOLJ
70
1
9
$DIMTP
40
0.0
9
$DIMTXT
40
0.18
9
$DIMTXTDIRECTION
70
0
9
$DIMTZIN
70
0
9
$DIMZIN
70
0
9
$DIMFRAC
70
0
9
$DIMLTYPE
6
ByBlock
9
$DIMLTEX1
6
ByBlock
9
$DIMLTEX2
6
ByBlock
0
ENDSEC
0
SECTION
2
CLASSES
0
CLASS
1
RASTERVARIABLES
2
AcDbRasterVariables
3
ISM
90
0
280
0
281
0
0
ENDSEC
0
SECTION
2
TABLES
0
TABLE
2
APPID
5
4
330
0
100
AcDbSymbolTable
70
5
0
APPID
5
19
330
4
100
AcDbSymbolTableRecord
100
AcDbRegAppTableRecord
2
ACAD
70
0
0
APPID
5
32
330
4
100
AcDbSymbolTableRecord
100
AcDbRegAppTableRecord
2
AcCmTransparency
70
0
0
APPID
5
33
330
4
100
AcDbSymbolTableRecord
100
AcDbRegAppTableRecord
2
AcAecLayerStandard
70
0
0
APPID
5
34
330
4
100
AcDbSymbolTableRecord
100
AcDbRegAppTableRecord
2
GradientColor1ACI
70
0
0
APPID
5
35
330
4
100
AcDbSymbolTableRecord
100
AcDbRegAppTableRecord
2
GradientColor2ACI
70
0
0
ENDTAB
0
TABLE
2
VPORT
5
1
330
0
100
AcDbSymbolTable
70
1
0
VPORT
5
2
330
1
100
AcDbSymbolTableRecord
100
AcDbViewportTableRecord
2
*Active
70
0
10
0.0
20
0.0
11
1.0
21
1.0
12
0.0
22
0.0
13
0.0
23
0.0
14
0.5
24
0.5
15
10.0
25
10.0
16
0.0
26
0.0
36
1.0
17
0.0
27
0.0
37
0.0
40
10.0
41
1.0
75
0
76
1
0
ENDTAB
0
TABLE
2
LTYPE
5
7
330
0
100
AcDbSymbolTable
70
3
0
LTYPE
5
15
330
7
100
AcDbSymbolTableRecord
100
AcDbLinetypeTableRecord
2
Continuous
70
0
3
Solid line
72
65
73
0
40
0.0
0
LTYPE
5
16
330
7
100
AcDbSymbolTableRecord
100
AcDbLinetypeTableRecord
2
ByLayer
70
0
3

72
65
73
0
40
0.0
0
LTYPE
5
17
330
7
100
AcDbSymbolTableRecord
100
AcDbLinetypeTableRecord
2
ByBlock
70
0
3

72
65
73
0
40
0.0
0
ENDTAB
0
TABLE
2
LAYER
5
5
102
{ACAD_XDICTIONARY
360
6
102
}
330
0
100
AcDbSymbolTable
70
3
0
LAYER
5
14
330
5
100
AcDbSymbolTableRecord
100
AcDbLayerTableRecord
2
0
70
0
62
7
6
Continuous
290
1
370
-3
390
0
0
LAYER
5
23
330
5
100
AcDbSymbolTableRecord
100
AcDbLayerTableRecord
2
PerimetroLastra
70
0
62
7
6
Continuous
290
1
370
-3
390
0
0
LAYER
5
25
330
5
100
AcDbSymbolTableRecord
100
AcDbLayerTableRecord
2
Default
70
0
62
7
6
Continuous
290
1
370
-3
390
0
0
ENDTAB
0
TABLE
2
STYLE
5
8
330
0
100
AcDbSymbolTable
70
1
0
STYLE
5
18
330
8
100
AcDbSymbolTableRecord
100
AcDbTextStyleTableRecord
2
Standard
3
simplex.shx
70
0
71
0
40
0.0
41
1.0
42
0.0
50
0.0
0
ENDTAB
0
TABLE
2
DIMSTYLE
5
A
330
0
100
AcDbSymbolTable
70
1
100
AcDbDimStyleTable
0
DIMSTYLE
105
1A
330
A
100
AcDbSymbolTableRecord
100
AcDbDimStyleTableRecord
2
Standard
3

4

40
1.0
41
0.18
42
0.0625
43
0.38
44
0.18
45
0.0
46
0.0
47
0.0
48
0.0
49
1.0
70
0
71
0
72
0
73
0
74
0
75
0
76
0
77
0
78
0
79
0
140
0.18
141
0.09
143
25.4
144
1.0
146
1.0
147
0.09
148
0.0
170
0
171
2
172
0
174
0
175
0
176
0
177
0
178
0
179
0
271
4
272
4
273
2
274
2
275
0
276
0
277
2
278
46
279
0
280
0
281
0
282
0
283
1
284
0
285
0
286
0
289
3
290
0
294
0
340
18
173
0
345
17
346
17
347
17
371
-2
372
-2
0
ENDTAB
0
TABLE
2
VIEW
5
3
330
0
100
AcDbSymbolTable
70
0
0
ENDTAB
0
TABLE
2
UCS
5
C
330
0
100
AcDbSymbolTable
70
0
0
ENDTAB
0
TABLE
2
BLOCK_RECORD
5
D
330
0
100
AcDbSymbolTable
70
2
0
BLOCK_RECORD
5
1C
330
D
100
AcDbSymbolTableRecord
100
AcDbBlockTableRecord
2
*Model_Space
340
20
0
BLOCK_RECORD
5
2C
330
D
100
AcDbSymbolTableRecord
100
AcDbBlockTableRecord
2
*Paper_Space
340
31
0
ENDTAB
0
ENDSEC
0
SECTION
2
BLOCKS
0
BLOCK
5
1E
330
1C
100
AcDbEntity
67
0
8
0
100
AcDbBlockBegin
2
*Model_Space
70
0
10
0.0
20
0.0
30
0.0
3
*Model_Space
4

0
ENDBLK
5
1D
330
1C
100
AcDbEntity
8
0
100
AcDbBlockEnd
0
BLOCK
5
2E
330
2C
100
AcDbEntity
67
1
8
0
100
AcDbBlockBegin
2
*Paper_Space
70
0
10
0.0
20
0.0
30
0.0
3
*Paper_Space
4

0
ENDBLK
5
2D
330
2C
100
AcDbEntity
8
0
100
AcDbBlockEnd
0
ENDSEC
0
SECTION
2
ENTITIES
0
LWPOLYLINE
5
22
330
1C
100
AcDbEntity
67
0
8
PerimetroLastra
62
256
6
ByLayer
370
-1
48
1.0
60
0
100
AcDbPolyline
90
100
70
0
38
0.0
39
0.0
10
3111.35106382979
20
-18.2446808510631
40
0.0
41
0.0
42
0.0
10
3111.35106382979
20
-83.9361702127655
40
0.0
41
0.0
42
0.0
10
3111.35106382979
20
-83.9361702127655
40
0.0
41
0.0
42
0.0
10
3153.39361702128
20
-112.840425531914
40
0.0
41
0.0
42
0.0
10
3153.39361702128
20
-112.840425531914
40
0.0
41
0.0
42
0.0
10
3177.04255319149
20
-238.968085106382
40
0.0
41
0.0
42
0.0
10
3177.04255319149
20
-238.968085106382
40
0.0
41
0.0
42
0.0
10
3145.51063829787
20
-273.127659574468
40
0.0
41
0.0
42
0.0
10
3145.51063829787
20
-273.127659574468
40
0.0
41
0.0
42
0.0
10
3213.82978723404
20
-451.808510638297
40
0.0
41
0.0
42
0.0
10
3213.82978723404
20
-451.808510638297
40
0.0
41
0.0
42
0.0
10
3161.27659574468
20
-488.595744680851
40
0.0
41
0.0
42
0.0
10
3161.27659574468
20
-488.595744680851
40
0.0
41
0.0
42
0.0
10
3363.60638297872
20
-964.202127659574
40
0.0
41
0.0
42
0.0
10
3363.60638297872
20
-964.202127659574
40
0.0
41
0.0
42
0.0
10
3481.85106382979
20
-1290.03191489362
40
0.0
41
0.0
42
0.0
10
3481.85106382979
20
-1290.03191489362
40
0.0
41
0.0
42
0.0
10
3684.18085106383
20
-1692.06382978723
40
0.0
41
0.0
42
0.0
10
3684.18085106383
20
-1692.06382978723
40
0.0
41
0.0
42
0.0
10
3663.15957446809
20
-1920.67021276596
40
0.0
41
0.0
42
0.0
10
3663.15957446809
20
-1920.67021276596
40
0.0
41
0.0
42
0.0
10
3579.07446808511
20
-2130.8829787234
40
0.0
41
0.0
42
0.0
10
3579.07446808511
20
-2130.8829787234
40
0.0
41
0.0
42
0.0
10
1003.96808510638
20
-2128.25531914894
40
0.0
41
0.0
42
0.0
10
1003.96808510638
20
-2128.25531914894
40
0.0
41
0.0
42
0.0
10
872.585106382979
20
-2101.97872340426
40
0.0
41
0.0
42
0.0
10
872.585106382979
20
-2101.97872340426
40
0.0
41
0.0
42
0.0
10
704.414893617021
20
-2112.48936170213
40
0.0
41
0.0
42
0.0
10
704.414893617021
20
-2112.48936170213
40
0.0
41
0.0
42
0.0
10
599.308510638298
20
-2125.62765957447
40
0.0
41
0.0
42
0.0
10
599.308510638298
20
-2125.62765957447
40
0.0
41
0.0
42
0.0
10
189.393617021276
20
-2117.74468085106
40
0.0
41
0.0
42
0.0
10
189.393617021276
20
-2117.74468085106
40
0.0
41
0.0
42
0.0
10
142.09574468085
20
-2036.28723404255
40
0.0
41
0.0
42
0.0
10
142.09574468085
20
-2036.28723404255
40
0.0
41
0.0
42
0.0
10
113.191489361702
20
-1862.86170212766
40
0.0
41
0.0
42
0.0
10
113.191489361702
20
-1862.86170212766
40
0.0
41
0.0
42
0.0
10
142.09574468085
20
-1778.77659574468
40
0.0
41
0.0
42
0.0
10
142.09574468085
20
-1778.77659574468
40
0.0
41
0.0
42
0.0
10
128.95744680851
20
-1634.25531914894
40
0.0
41
0.0
42
0.0
10
128.95744680851
20
-1634.25531914894
40
0.0
41
0.0
42
0.0
10
113.191489361701
20
-974.712765957447
40
0.0
41
0.0
42
0.0
10
113.191489361701
20
-974.712765957447
40
0.0
41
0.0
42
0.0
10
173.627659574467
20
-1022.01063829787
40
0.0
41
0.0
42
0.0
10
173.627659574467
20
-1022.01063829787
40
0.0
41
0.0
42
0.0
10
257.712765957446
20
-945.808510638298
40
0.0
41
0.0
42
0.0
10
257.712765957446
20
-945.808510638298
40
0.0
41
0.0
42
0.0
10
331.287234042552
20
-945.808510638298
40
0.0
41
0.0
42
0.0
10
331.287234042552
20
-945.808510638298
40
0.0
41
0.0
42
0.0
10
394.351063829787
20
-906.393617021277
40
0.0
41
0.0
42
0.0
10
394.351063829787
20
-906.393617021277
40
0.0
41
0.0
42
0.0
10
444.27659574468
20
-859.095744680851
40
0.0
41
0.0
42
0.0
10
444.27659574468
20
-859.095744680851
40
0.0
41
0.0
42
0.0
10
573.031914893617
20
-853.840425531915
40
0.0
41
0.0
42
0.0
10
573.031914893617
20
-853.840425531915
40
0.0
41
0.0
42
0.0
10
617.702127659574
20
-885.372340425532
40
0.0
41
0.0
42
0.0
10
617.702127659574
20
-885.372340425532
40
0.0
41
0.0
42
0.0
10
722.808510638298
20
-851.212765957447
40
0.0
41
0.0
42
0.0
10
722.808510638298
20
-851.212765957447
40
0.0
41
0.0
42
0.0
10
841.053191489361
20
-777.638297872341
40
0.0
41
0.0
42
0.0
10
841.053191489361
20
-777.638297872341
40
0.0
41
0.0
42
0.0
10
922.510638297872
20
-730.340425531915
40
0.0
41
0.0
42
0.0
10
922.510638297872
20
-730.340425531915
40
0.0
41
0.0
42
0.0
10
1030.24468085106
20
-701.436170212766
40
0.0
41
0.0
42
0.0
10
1030.24468085106
20
-701.436170212766
40
0.0
41
0.0
42
0.0
10
1122.21276595745
20
-654.13829787234
40
0.0
41
0.0
42
0.0
10
1122.21276595745
20
-654.13829787234
40
0.0
41
0.0
42
0.0
10
1261.47872340425
20
-593.702127659574
40
0.0
41
0.0
42
0.0
10
1261.47872340425
20
-593.702127659574
40
0.0
41
0.0
42
0.0
10
1327.17021276596
20
-633.117021276596
40
0.0
41
0.0
42
0.0
10
1327.17021276596
20
-633.117021276596
40
0.0
41
0.0
42
0.0
10
1400.74468085106
20
-677.787234042553
40
0.0
41
0.0
42
0.0
10
1400.74468085106
20
-677.787234042553
40
0.0
41
0.0
42
0.0
10
1500.59574468085
20
-706.691489361702
40
0.0
41
0.0
42
0.0
10
1500.59574468085
20
-706.691489361702
40
0.0
41
0.0
42
0.0
10
1634.60638297872
20
-704.063829787234
40
0.0
41
0.0
42
0.0
10
1634.60638297872
20
-704.063829787234
40
0.0
41
0.0
42
0.0
10
1781.75531914894
20
-688.297872340425
40
0.0
41
0.0
42
0.0
10
1781.75531914894
20
-688.297872340425
40
0.0
41
0.0
42
0.0
10
1918.39361702128
20
-643.627659574468
40
0.0
41
0.0
42
0.0
10
1918.39361702128
20
-643.627659574468
40
0.0
41
0.0
42
0.0
10
1991.96808510638
20
-593.702127659574
40
0.0
41
0.0
42
0.0
10
1991.96808510638
20
-593.702127659574
40
0.0
41
0.0
42
0.0
10
2020.87234042553
20
-538.521276595745
40
0.0
41
0.0
42
0.0
10
2020.87234042553
20
-538.521276595745
40
0.0
41
0.0
42
0.0
10
1986.71276595745
20
-457.063829787234
40
0.0
41
0.0
42
0.0
10
1986.71276595745
20
-457.063829787234
40
0.0
41
0.0
42
0.0
10
2049.77659574468
20
-399.255319148936
40
0.0
41
0.0
42
0.0
10
2049.77659574468
20
-399.255319148936
40
0.0
41
0.0
42
0.0
10
2041.89361702128
20
-344.074468085106
40
0.0
41
0.0
42
0.0
10
2041.89361702128
20
-344.074468085106
40
0.0
41
0.0
42
0.0
10
2091.81914893617
20
-275.755319148936
40
0.0
41
0.0
42
0.0
10
2091.81914893617
20
-275.755319148936
40
0.0
41
0.0
42
0.0
10
2189.04255319149
20
-199.553191489361
40
0.0
41
0.0
42
0.0
10
2189.04255319149
20
-199.553191489361
40
0.0
41
0.0
42
0.0
10
2210.06382978723
20
-110.212765957446
40
0.0
41
0.0
42
0.0
10
2210.06382978723
20
-110.212765957446
40
0.0
41
0.0
42
0.0
10
2273.12765957447
20
-20.8723404255315
40
0.0
41
0.0
42
0.0
10
2273.12765957447
20
-20.8723404255315
40
0.0
41
0.0
42
0.0
10
3111.35106382979
20
-18.2446808510631
40
0.0
41
0.0
42
0.0
210
0.0
220
0.0
230
1.0
0
LWPOLYLINE
5
24
330
1C
100
AcDbEntity
67
0
8
Default
62
256
6
ByLayer
370
-1
48
1.0
60
0
100
AcDbPolyline
90
8
70
0
38
0.0
39
0.0
10
1266.19366455079
20
-1465.53662109375
40
0.0
41
0.0
42
0.0
10
1266.19366455079
20
-1865.53662109375
40
0.0
41
0.0
42
0.0
10
1266.19366455079
20
-1865.53662109375
40
0.0
41
0.0
42
0.0
10
266.193664550781
20
-1865.53662109375
40
0.0
41
0.0
42
0.0
10
266.193664550781
20
-1865.53662109375
40
0.0
41
0.0
42
0.0
10
266.193664550781
20
-1465.53662109375
40
0.0
41
0.0
42
0.0
10
266.193664550781
20
-1465.53662109375
40
0.0
41
0.0
42
0.0
10
1266.19366455079
20
-1465.53662109375
40
0.0
41
0.0
42
0.0
210
0.0
220
0.0
230
1.0
0
LWPOLYLINE
5
26
330
1C
100
AcDbEntity
67
0
8
Default
62
256
6
ByLayer
370
-1
48
1.0
60
0
100
AcDbPolyline
90
8
70
0
38
0.0
39
0.0
10
1266.19366455078
20
-1062.33666992188
40
0.0
41
0.0
42
0.0
10
1266.19366455078
20
-1462.33666992188
40
0.0
41
0.0
42
0.0
10
1266.19366455078
20
-1462.33666992188
40
0.0
41
0.0
42
0.0
10
266.193664550781
20
-1462.33666992188
40
0.0
41
0.0
42
0.0
10
266.193664550781
20
-1462.33666992188
40
0.0
41
0.0
42
0.0
10
266.193664550781
20
-1062.33666992188
40
0.0
41
0.0
42
0.0
10
266.193664550781
20
-1062.33666992188
40
0.0
41
0.0
42
0.0
10
1266.19366455078
20
-1062.33666992188
40
0.0
41
0.0
42
0.0
210
0.0
220
0.0
230
1.0
0
LWPOLYLINE
5
27
330
1C
100
AcDbEntity
67
0
8
Default
62
256
6
ByLayer
370
-1
48
1.0
60
0
100
AcDbPolyline
90
8
70
0
38
0.0
39
0.0
10
1269.39367675781
20
-1076.92431640625
40
0.0
41
0.0
42
0.0
10
1669.39367675781
20
-1076.92431640625
40
0.0
41
0.0
42
0.0
10
1669.39367675781
20
-1076.92431640625
40
0.0
41
0.0
42
0.0
10
1669.39367675781
20
-2076.92431640625
40
0.0
41
0.0
42
0.0
10
1669.39367675781
20
-2076.92431640625
40
0.0
41
0.0
42
0.0
10
1269.39367675781
20
-2076.92431640625
40
0.0
41
0.0
42
0.0
10
1269.39367675781
20
-2076.92431640625
40
0.0
41
0.0
42
0.0
10
1269.39367675781
20
-1076.92431640625
40
0.0
41
0.0
42
0.0
210
0.0
220
0.0
230
1.0
0
LWPOLYLINE
5
28
330
1C
100
AcDbEntity
67
0
8
Default
62
256
6
ByLayer
370
-1
48
1.0
60
0
100
AcDbPolyline
90
8
70
0
38
0.0
39
0.0
10
1672.59362792969
20
-1077.33569335938
40
0.0
41
0.0
42
0.0
10
2072.59362792969
20
-1077.33569335938
40
0.0
41
0.0
42
0.0
10
2072.59362792969
20
-1077.33569335938
40
0.0
41
0.0
42
0.0
10
2072.59362792969
20
-2077.33569335938
40
0.0
41
0.0
42
0.0
10
2072.59362792969
20
-2077.33569335938
40
0.0
41
0.0
42
0.0
10
1672.59362792969
20
-2077.33569335938
40
0.0
41
0.0
42
0.0
10
1672.59362792969
20
-2077.33569335938
40
0.0
41
0.0
42
0.0
10
1672.59362792969
20
-1077.33569335938
40
0.0
41
0.0
42
0.0
210
0.0
220
0.0
230
1.0
0
LWPOLYLINE
5
29
330
1C
100
AcDbEntity
67
0
8
Default
62
256
6
ByLayer
370
-1
48
1.0
60
0
100
AcDbPolyline
90
8
70
0
38
0.0
39
0.0
10
2475.79362797737
20
-1077.33569847503
40
0.0
41
0.0
42
0.0
10
2475.79362797737
20
-2077.33569847502
40
0.0
41
0.0
42
0.0
10
2475.79362797737
20
-2077.33569847502
40
0.0
41
0.0
42
0.0
10
2075.79362797737
20
-2077.33569847502
40
0.0
41
0.0
42
0.0
10
2075.79362797737
20
-2077.33569847502
40
0.0
41
0.0
42
0.0
10
2075.79362797737
20
-1077.33569847503
40
0.0
41
0.0
42
0.0
10
2075.79362797737
20
-1077.33569847503
40
0.0
41
0.0
42
0.0
10
2475.79362797737
20
-1077.33569847503
40
0.0
41
0.0
42
0.0
210
0.0
220
0.0
230
1.0
0
LWPOLYLINE
5
2A
330
1C
100
AcDbEntity
67
0
8
Default
62
256
6
ByLayer
370
-1
48
1.0
60
0
100
AcDbPolyline
90
8
70
0
38
0.0
39
0.0
10
2878.99363249528
20
-1077.33559288483
40
0.0
41
0.0
42
0.0
10
2878.99363249528
20
-2077.33559288483
40
0.0
41
0.0
42
0.0
10
2878.99363249528
20
-2077.33559288483
40
0.0
41
0.0
42
0.0
10
2478.99363249528
20
-2077.33559288483
40
0.0
41
0.0
42
0.0
10
2478.99363249528
20
-2077.33559288483
40
0.0
41
0.0
42
0.0
10
2478.99363249528
20
-1077.33559288483
40
0.0
41
0.0
42
0.0
10
2478.99363249528
20
-1077.33559288483
40
0.0
41
0.0
42
0.0
10
2878.99363249528
20
-1077.33559288483
40
0.0
41
0.0
42
0.0
210
0.0
220
0.0
230
1.0
0
LWPOLYLINE
5
2B
330
1C
100
AcDbEntity
67
0
8
Default
62
256
6
ByLayer
370
-1
48
1.0
60
0
100
AcDbPolyline
90
8
70
0
38
0.0
39
0.0
10
3282.19363114005
20
-1077.33569348395
40
0.0
41
0.0
42
0.0
10
3282.19363114005
20
-2077.33569348394
40
0.0
41
0.0
42
0.0
10
3282.19363114005
20
-2077.33569348394
40
0.0
41
0.0
42
0.0
10
2882.19363114005
20
-2077.33569348395
40
0.0
41
0.0
42
0.0
10
2882.19363114005
20
-2077.33569348395
40
0.0
41
0.0
42
0.0
10
2882.19363114005
20
-1077.33569348395
40
0.0
41
0.0
42
0.0
10
2882.19363114005
20
-1077.33569348395
40
0.0
41
0.0
42
0.0
10
3282.19363114005
20
-1077.33569348395
40
0.0
41
0.0
42
0.0
210
0.0
220
0.0
230
1.0
0
VIEWPORT
5
30
330
2C
100
AcDbEntity
67
1
8
0
62
256
6
ByLayer
370
-1
48
1.0
60
0
100
AcDbViewport
10
0.0
20
0.0
30
0.0
40
297.0
41
210.0
68
1
69
1
12
50.0
22
100.0
13
0.0
23
0.0
14
10.0
24
10.0
15
10.0
25
10.0
16
0.0
26
0.0
36
1.0
17
0.0
27
0.0
37
0.0
42
50.0
43
0.0
44
0.0
45
250.0
50
0.0
51
0.0
72
1000
90
819232
110
0.0
120
0.0
130
0.0
111
1.0
121
0.0
131
0.0
112
0.0
122
1.0
132
0.0
0
ENDSEC
0
SECTION
2
OBJECTS
0
DICTIONARY
5
36
330
0
100
AcDbDictionary
280
1
281
1
3
ACAD_GROUP
350
12
3
ACAD_LAYOUT
350
2F
3
ACAD_DGNDEFINITIONS
350
F
3
ACAD_DWFDEFINITIONS
350
10
3
ACAD_PDFDEFINITIONS
350
11
3
ACAD_MLINESTYLE
350
B
3
ACAD_IMAGE_DICT
350
E
3
ACAD_IMAGE_VARS
350
21
0
DICTIONARY
5
12
330
36
100
AcDbDictionary
280
1
281
1
0
DICTIONARY
5
2F
330
36
100
AcDbDictionary
280
1
281
1
3
Model
350
20
3
Layout1
350
31
0
DICTIONARY
5
F
330
36
100
AcDbDictionary
280
1
281
1
0
DICTIONARY
5
10
330
36
100
AcDbDictionary
280
1
281
1
0
DICTIONARY
5
11
330
36
100
AcDbDictionary
280
1
281
1
0
DICTIONARY
5
B
330
36
100
AcDbDictionary
280
1
281
1
3
Standard
350
1B
0
DICTIONARY
5
E
330
36
100
AcDbDictionary
280
1
281
1
0
DICTIONARY
5
6
330
5
100
AcDbDictionary
280
1
281
1
3
ACAD_LAYERSTATES
360
37
0
DICTIONARY
5
37
330
6
100
AcDbDictionary
280
1
281
1
0
LAYOUT
5
20
330
2F
100
AcDbPlotSettings
1

2
none_device
4
ISO_A4_(210.00_x_297.00_MM)
6

40
7.5
41
20.0
42
7.5
43
20.0
44
210.0
45
297.0
46
0.0
47
0.0
48
0.0
49
0.0
140
0.0
141
0.0
142
1.0
143
1.0
70
11952
72
1
73
1
74
1
7

75
0
76
0
77
2
78
300
147
1.0
148
0.0
149
0.0
100
AcDbLayout
1
Model
71
0
10
-20.0
20
-7.5
11
277.0
21
202.5
12
0.0
22
0.0
32
0.0
14
25.7
24
19.5
34
0.0
15
231.3
25
175.5
35
0.0
146
0.0
13
0.0
23
0.0
33
0.0
16
1.0
26
0.0
36
0.0
17
0.0
27
1.0
37
0.0
76
0
330
1C
0
LAYOUT
5
31
330
2F
100
AcDbPlotSettings
1

2
none_device
4
ISO_A4_(210.00_x_297.00_MM)
6

40
7.5
41
20.0
42
7.5
43
20.0
44
210.0
45
297.0
46
0.0
47
0.0
48
0.0
49
0.0
140
0.0
141
0.0
142
1.0
143
1.0
70
688
72
1
73
1
74
1
7

75
0
76
0
77
2
78
300
147
1.0
148
0.0
149
0.0
100
AcDbLayout
1
Layout1
71
1
10
-20.0
20
-7.5
11
277.0
21
202.5
12
0.0
22
0.0
32
0.0
14
25.7
24
19.5
34
0.0
15
231.3
25
175.5
35
0.0
146
0.0
13
0.0
23
0.0
33
0.0
16
1.0
26
0.0
36
0.0
17
0.0
27
1.0
37
0.0
76
0
330
2C
0
MLINESTYLE
5
1B
330
B
100
AcDbMlineStyle
2
Standard
70
0
3

62
256
51
90.0
52
90.0
71
2
49
0.5
62
256
6
ByLayer
49
-0.5
62
256
6
ByLayer
0
RASTERVARIABLES
5
21
330
E
100
AcDbRasterVariables
90
0
70
1
71
1
72
0
0
ENDSEC
0
EOF
