<?xml version="1.0" encoding="UTF-8"?> <svg xmlns="http://www.w3.org/2000/svg" xmlns:xlink="http://www.w3.org/1999/xlink" width="200px" height="28px" viewBox="0 0 200 28" version="1.1"><title>Combined Shape</title><g id="Symbols" stroke="none" stroke-width="1" fill="none" fill-rule="evenodd"><path d="M46.9607064,16.6520854 C46.628283,17.5626929 46.1428185,18.3605911 45.5027323,19.0460427 C44.8626461,19.7322824 44.0919085,20.2643021 43.1913099,20.6423645 C42.2901844,21.0206897 41.2710512,21.2098522 40.1331202,21.2098522 C38.9951892,21.2098522 37.9755292,21.0206897 37.0749306,20.6423645 C36.1735417,20.2643021 35.4035943,19.7322824 34.7635081,19.0460427 C34.1234219,18.3605911 33.6371671,17.5626929 33.305534,16.6520854 C32.9731106,15.7420033 32.8076892,14.7546798 32.8076892,13.6906404 C32.8076892,12.555665 32.9731106,11.5270936 33.305534,10.6049261 C33.6371671,9.68275862 34.1234219,8.89064039 34.7635081,8.2283087 C35.4035943,7.56676519 36.1735417,7.05812808 37.0749306,6.70344828 C37.9755292,6.34876847 38.9951892,6.17142857 40.1331202,6.17142857 C41.2470809,6.17142857 42.2543606,6.34876847 43.1557495,6.70344828 C44.0563482,7.05812808 44.8270857,7.56676519 45.4671719,8.2283087 C46.1072581,8.89064039 46.5987811,9.68275862 46.9427945,10.6049261 C47.2862811,11.5270936 47.4585512,12.555665 47.4585512,13.6906404 C47.4585512,14.7546798 47.2923396,15.7420033 46.9607064,16.6520854 M50.5523012,4.18522167 C49.3664296,2.90811166 47.9029239,1.89188834 46.160467,1.13471264 C44.4180101,0.378587849 42.4089823,0 40.1331202,0 C37.8332878,0 35.8124066,0.378587849 34.0699497,1.13471264 C32.3274928,1.89188834 30.8634602,2.90811166 29.6783788,4.18522167 C28.4925072,5.46206897 27.6034986,6.88683087 27.011353,8.45898194 C26.4184171,10.0319212 26.1223443,11.6332348 26.1223443,13.2650246 L26.1223443,14.0453202 C26.1223443,15.5115928 26.4068271,17.0246305 26.9757926,18.5849589 C27.5447581,20.1458128 28.4097965,21.5944828 29.5716978,22.9301806 C30.7330723,24.2658785 32.190783,25.3417406 33.9456202,26.1577668 C35.6996671,26.9732677 37.7621671,27.3812808 40.1331202,27.3812808 C42.480103,27.3812808 44.5302227,26.9732677 46.2850599,26.1577668 C48.0391068,25.3417406 49.4970809,24.2658785 50.6589823,22.9301806 C51.8200934,21.5944828 52.6914535,20.1458128 53.2725359,18.5849589 C53.8533549,17.0246305 54.1438961,15.5115928 54.1438961,14.0453202 L54.1438961,13.2650246 C54.1438961,11.6332348 53.8415014,10.0319212 53.2369756,8.45898194 C52.6324497,6.88683087 51.7373827,5.46206897 50.5523012,4.18522167 M77.5148552,21.2758373 L76.9884902,21.2758373 L68.4613765,0.657090312 L57.7586207,0.657090312 L57.7586207,26.5191593 L63.7942731,26.5191593 L63.7942731,5.90041229 L64.3206382,5.90041229 L72.8477518,26.5191593 L83.6206897,26.5191593 L83.6206897,0.657090312 L77.5148552,0.657090312 L77.5148552,21.2758373 Z M103.713357,0.657090312 L112.068966,26.5191593 L105.439722,26.5191593 L103.611309,20.5319132 L93.5467261,20.5319132 L91.7669072,26.5191593 L85.3448276,26.5191593 L93.4242181,0.657090312 L103.713357,0.657090312 Z M131.034483,0.657090312 L131.034483,6.39634397 L123.973078,6.39634397 L123.973078,26.5191593 L117.406233,26.5191593 L117.406233,6.39634397 L110.344828,6.39634397 L110.344828,0.657090312 L131.034483,0.657090312 Z M99.1649589,5.97121407 L97.8749163,5.97121407 L95.1472588,15.1469344 L101.967042,15.1469344 L99.1649589,5.97121407 Z M152.94414,16.6520854 C152.611717,17.5626929 152.126252,18.3605911 151.486166,19.0460427 C150.84608,19.7322824 150.075342,20.2643021 149.17448,20.6423645 C148.273618,21.0206897 147.254222,21.2098522 146.116554,21.2098522 C144.978623,21.2098522 143.958963,21.0206897 143.058364,20.6423645 C142.157239,20.2643021 141.387028,19.7322824 140.746679,19.0460427 C140.106856,18.3605911 139.620601,17.5626929 139.288968,16.6520854 C138.956545,15.7420033 138.791123,14.7546798 138.791123,13.6906404 C138.791123,12.555665 138.956545,11.5270936 139.288968,10.6049261 C139.620601,9.68275862 140.106856,8.89064039 140.746679,8.2283087 C141.387028,7.56676519 142.157239,7.05812808 143.058364,6.70344828 C143.958963,6.34876847 144.978623,6.17142857 146.116554,6.17142857 C147.230515,6.17142857 148.238058,6.34876847 149.139183,6.70344828 C150.039782,7.05812808 150.810256,7.56676519 151.450606,8.2283087 C152.090692,8.89064039 152.582478,9.68275862 152.926492,10.6049261 C153.269715,11.5270936 153.441985,12.555665 153.441985,13.6906404 C153.441985,14.7546798 153.275773,15.7420033 152.94414,16.6520854 M156.535735,4.18522167 C155.350127,2.90811166 153.886358,1.89188834 152.143901,1.13471264 C150.401707,0.378587849 148.392416,0 146.116554,0 C143.816722,0 141.796104,0.378587849 140.053384,1.13471264 C138.310927,1.89188834 136.846894,2.90811166 135.661813,4.18522167 C134.476205,5.46206897 133.587196,6.88683087 132.994787,8.45898194 C132.401851,10.0319212 132.105778,11.6332348 132.105778,13.2650246 L132.105778,14.0453202 C132.105778,15.5115928 132.390261,17.0246305 132.959227,18.5849589 C133.528192,20.1458128 134.39323,21.5944828 135.554868,22.9301806 C136.716506,24.2658785 138.17448,25.3417406 139.929054,26.1577668 C141.683101,26.9732677 143.745601,27.3812808 146.116554,27.3812808 C148.463537,27.3812808 150.513657,26.9732677 152.268494,26.1577668 C154.022541,25.3417406 155.480515,24.2658785 156.642416,22.9301806 C157.803527,21.5944828 158.674887,20.1458128 159.25597,18.5849589 C159.836789,17.0246305 160.12733,15.5115928 160.12733,14.0453202 L160.12733,13.2650246 C160.12733,11.6332348 159.824935,10.0319212 159.220409,8.45898194 C158.615884,6.88683087 157.720817,5.46206897 156.535735,4.18522167 M182.687269,21.2758373 L182.160904,21.2758373 L173.63379,0.657090312 L162.931034,0.657090312 L162.931034,26.5191593 L168.966687,26.5191593 L168.966687,5.90041229 L169.493052,5.90041229 L178.020166,26.5191593 L188.793103,26.5191593 L188.793103,0.657090312 L182.687269,0.657090312 L182.687269,21.2758373 Z M193.965517,26.5191593 L200,26.5191593 L200,0.657090312 L193.965517,0.657090312 L193.965517,26.5191593 Z M10.2673762,0.657090312 L0.176197634,0.657090312 L0.176197634,6.46112068 L10.2673762,6.46112068 C14.2210038,6.46112068 17.4373834,9.65812585 17.4373834,13.5882528 C17.4373834,16.8843562 15.1282671,19.769983 11.918585,20.5246145 L6.75784904,10.6470593 L0,10.6470593 L8.516219,26.5191593 L10.2673762,26.5191593 C17.440217,26.5191593 23.2758621,20.7182017 23.2758621,13.5882528 C23.2758621,6.45804787 17.440217,0.657090312 10.2673762,0.657090312" id="Combined-Shape" fill="#FFFFFF"></path></g></svg> 